<svg width="246" height="40" viewBox="0 0 246 40" fill="none" xmlns="http://www.w3.org/2000/svg">
<g clip-path="url(#clip0)">
<mask id="mask0" mask-type="alpha" maskUnits="userSpaceOnUse" x="0" y="-1" width="33" height="42">
<path d="M1.2 36.9L0 3.90001C0 2.80001 0.8 1.90001 1.9 1.80001L29.9 5.51436e-06C30.1707 -0.0274805 30.4442 0.000568748 30.7037 0.0824367C30.9632 0.164305 31.2033 0.298269 31.4093 0.476131C31.6152 0.653992 31.7827 0.87201 31.9015 1.11684C32.0202 1.36167 32.0878 1.62816 32.1 1.90001C32.1008 1.93333 32.1008 1.96668 32.1 2.00001V38C32.1 38.5304 31.8893 39.0391 31.5142 39.4142C31.1391 39.7893 30.6304 40 30.1 40C30.0667 40.0008 30.0333 40.0008 30 40L3.2 38.8C2.66957 38.8 2.16086 38.5893 1.78579 38.2142C1.41071 37.8391 1.2 37.3304 1.2 36.8V36.9Z" fill="white"/>
</mask>
<g mask="url(#mask0)">
<path d="M1.2 36.9L0 3.90001C0 2.80001 0.8 1.90001 1.9 1.80001L29.9 5.51436e-06C30.1707 -0.0274805 30.4442 0.000568748 30.7037 0.0824367C30.9632 0.164305 31.2033 0.298269 31.4093 0.476131C31.6152 0.653992 31.7827 0.87201 31.9015 1.11684C32.0202 1.36167 32.0878 1.62816 32.1 1.90001C32.1008 1.93333 32.1008 1.96668 32.1 2.00001V38C32.1 38.5304 31.8893 39.0391 31.5142 39.4142C31.1391 39.7893 30.6304 40 30.1 40C30.0667 40.0008 30.0333 40.0008 30 40L3.2 38.8C2.66957 38.8 2.16086 38.5893 1.78579 38.2142C1.41071 37.8391 1.2 37.3304 1.2 36.8V36.9Z" fill="#FF4785"/>
<path d="M23.7001 5.00001L24.0001 0.200009L27.9001 -0.0999908L28.0001 4.70001C27.9958 4.75592 27.9759 4.80951 27.9428 4.85471C27.9096 4.89991 27.8644 4.9349 27.8123 4.95573C27.7603 4.97655 27.7034 4.98237 27.6482 4.97252C27.593 4.96267 27.5417 4.93755 27.5001 4.90001L26.0001 3.80001L24.3001 5.20001C24.2528 5.24791 24.1909 5.27854 24.1241 5.287C24.0574 5.29545 23.9898 5.28123 23.9321 5.24662C23.8744 5.21201 23.83 5.15903 23.8061 5.09617C23.7821 5.0333 23.78 4.96422 23.8001 4.90001L23.7001 5.00001ZM18.7001 15C18.7001 15.9 24.0001 15.5 24.7001 15C24.7001 9.60001 21.9001 6.80001 16.7001 6.80001C11.4001 6.80001 8.50005 9.60001 8.50005 13.9C8.50005 21.3 18.5001 21.5 18.5001 25.5C18.5001 26.7 18.0001 27.4 16.7001 27.4C15.1001 27.4 14.5001 26.5 14.6001 23.8C14.6001 23.2 8.50005 23 8.30005 23.8C7.80005 30.5 12.0001 32.4 16.8001 32.4C21.4001 32.4 25.1001 29.9 25.1001 25.4C25.1001 17.5 14.9001 17.7 14.9001 13.8C14.9001 12.2 16.1001 12 16.9001 12C17.5001 12 18.9001 12 18.8001 15H18.7001Z" fill="white"/>
</g>
<path d="M50.121 15.471C51.8223 15.471 53.0887 15.9543 53.92 16.921C54.7513 17.8877 55.167 19.3473 55.167 21.3V30H51.542V21.503C51.542 20.401 51.3293 19.5987 50.904 19.096C50.498 18.5933 49.8503 18.342 48.961 18.342C47.917 18.342 47.076 18.6707 46.438 19.328C45.8193 19.9853 45.51 20.865 45.51 21.967V30H41.885V15.819H45.423V17.936C45.9063 17.1433 46.554 16.5343 47.366 16.109C48.178 15.6837 49.0963 15.471 50.121 15.471ZM71.8699 15.819V30H68.3319V27.825C67.8872 28.5983 67.2879 29.1977 66.5339 29.623C65.7799 30.029 64.9292 30.232 63.9819 30.232C60.5019 30.232 58.7619 28.2793 58.7619 24.374V15.819H62.3869V24.403C62.3869 25.4083 62.5899 26.1527 62.9959 26.636C63.4019 27.1193 64.0399 27.361 64.9099 27.361C65.9152 27.361 66.7175 27.0323 67.3169 26.375C67.9355 25.6983 68.2449 24.809 68.2449 23.707V15.819H71.8699ZM89.5338 30H85.2418L81.4718 25.273L77.7308 30H73.4388L79.3838 22.692L73.7578 15.819H78.0788L81.4718 20.14L84.8648 15.819H89.1858L83.5598 22.692L89.5338 30ZM98.3274 27.506C98.7527 27.506 99.1974 27.477 99.6614 27.419L99.4874 30.116C98.9074 30.174 98.3757 30.203 97.8924 30.203C95.901 30.203 94.4317 29.7487 93.4844 28.84C92.537 27.912 92.0634 26.5393 92.0634 24.722V18.545H89.3374V15.819H92.0634V11.585H95.6884V15.819H99.4294V18.545H95.6884V24.664C95.6884 26.5587 96.568 27.506 98.3274 27.506ZM100.762 31.247L108.215 7.931L110.97 8.801L103.517 32.117L100.762 31.247Z" fill="black"/>
<path d="M117.538 30.232C116.281 30.232 115.121 30.0773 114.058 29.768C113.014 29.4587 112.124 29.014 111.39 28.434L112.405 25.911C113.913 27.013 115.643 27.564 117.596 27.564C118.427 27.564 119.055 27.4287 119.481 27.158C119.925 26.8873 120.148 26.5007 120.148 25.998C120.148 25.5727 119.993 25.244 119.684 25.012C119.394 24.78 118.862 24.5673 118.089 24.374L115.769 23.852C114.454 23.562 113.478 23.0883 112.84 22.431C112.202 21.7737 111.883 20.923 111.883 19.879C111.883 19.009 112.124 18.2453 112.608 17.588C113.11 16.9113 113.797 16.3893 114.667 16.022C115.556 15.6547 116.581 15.471 117.741 15.471C118.746 15.471 119.713 15.6257 120.641 15.935C121.588 16.2443 122.419 16.6793 123.135 17.24L122.12 19.705C120.65 18.6417 119.181 18.11 117.712 18.11C116.919 18.11 116.3 18.255 115.856 18.545C115.411 18.835 115.189 19.241 115.189 19.763C115.189 20.1497 115.324 20.4687 115.595 20.72C115.885 20.9713 116.339 21.1647 116.958 21.3L119.365 21.851C120.776 22.1603 121.81 22.6533 122.468 23.33C123.125 23.9873 123.454 24.8573 123.454 25.94C123.454 27.2547 122.922 28.2987 121.859 29.072C120.795 29.8453 119.355 30.232 117.538 30.232ZM133.501 27.506C133.927 27.506 134.371 27.477 134.835 27.419L134.661 30.116C134.081 30.174 133.55 30.203 133.066 30.203C131.075 30.203 129.606 29.7487 128.658 28.84C127.711 27.912 127.237 26.5393 127.237 24.722V18.545H124.511V15.819H127.237V11.585H130.862V15.819H134.603V18.545H130.862V24.664C130.862 26.5587 131.742 27.506 133.501 27.506ZM143.423 30.232C141.973 30.232 140.697 29.9323 139.595 29.333C138.513 28.7337 137.672 27.8733 137.072 26.752C136.473 25.6307 136.173 24.3257 136.173 22.837C136.173 21.3483 136.473 20.053 137.072 18.951C137.672 17.8297 138.513 16.9693 139.595 16.37C140.697 15.7707 141.973 15.471 143.423 15.471C144.873 15.471 146.14 15.7707 147.222 16.37C148.324 16.9693 149.165 17.8297 149.745 18.951C150.345 20.053 150.644 21.3483 150.644 22.837C150.644 24.3257 150.345 25.6307 149.745 26.752C149.165 27.8733 148.324 28.7337 147.222 29.333C146.14 29.9323 144.873 30.232 143.423 30.232ZM143.394 27.419C144.574 27.419 145.473 27.0323 146.091 26.259C146.71 25.4857 147.019 24.345 147.019 22.837C147.019 21.3483 146.71 20.2173 146.091 19.444C145.473 18.6513 144.583 18.255 143.423 18.255C142.263 18.255 141.364 18.6513 140.726 19.444C140.108 20.2173 139.798 21.3483 139.798 22.837C139.798 24.345 140.108 25.4857 140.726 26.259C141.345 27.0323 142.234 27.419 143.394 27.419ZM162.975 18.487L160.858 18.69C158.461 18.9413 157.262 20.1593 157.262 22.344V30H153.637V15.819H157.088V18.313C157.823 16.6117 159.34 15.6837 161.641 15.529L162.743 15.442L162.975 18.487ZM179.13 15.848L170.604 35.22H166.95L169.531 29.449L163.615 15.848H167.443L171.445 25.853L175.563 15.848H179.13ZM189.03 15.471C190.267 15.471 191.36 15.7707 192.307 16.37C193.254 16.9693 193.989 17.82 194.511 18.922C195.052 20.024 195.323 21.3097 195.323 22.779C195.323 24.2483 195.052 25.5533 194.511 26.694C193.989 27.8153 193.245 28.6853 192.278 29.304C191.331 29.9227 190.248 30.232 189.03 30.232C188.005 30.232 187.087 30.0097 186.275 29.565C185.482 29.1203 184.873 28.5017 184.448 27.709V30H180.881V9.555H184.506V17.878C184.931 17.1047 185.54 16.515 186.333 16.109C187.126 15.6837 188.025 15.471 189.03 15.471ZM188.073 27.419C189.214 27.419 190.103 27.013 190.741 26.201C191.379 25.389 191.698 24.2483 191.698 22.779C191.698 21.329 191.379 20.2173 190.741 19.444C190.122 18.6707 189.233 18.284 188.073 18.284C186.913 18.284 186.014 18.6803 185.376 19.473C184.757 20.2463 184.448 21.3677 184.448 22.837C184.448 24.3063 184.757 25.4373 185.376 26.23C186.014 27.0227 186.913 27.419 188.073 27.419ZM204.765 30.232C203.315 30.232 202.039 29.9323 200.937 29.333C199.854 28.7337 199.013 27.8733 198.414 26.752C197.815 25.6307 197.515 24.3257 197.515 22.837C197.515 21.3483 197.815 20.053 198.414 18.951C199.013 17.8297 199.854 16.9693 200.937 16.37C202.039 15.7707 203.315 15.471 204.765 15.471C206.215 15.471 207.481 15.7707 208.564 16.37C209.666 16.9693 210.507 17.8297 211.087 18.951C211.686 20.053 211.986 21.3483 211.986 22.837C211.986 24.3257 211.686 25.6307 211.087 26.752C210.507 27.8733 209.666 28.7337 208.564 29.333C207.481 29.9323 206.215 30.232 204.765 30.232ZM204.736 27.419C205.915 27.419 206.814 27.0323 207.433 26.259C208.052 25.4857 208.361 24.345 208.361 22.837C208.361 21.3483 208.052 20.2173 207.433 19.444C206.814 18.6513 205.925 18.255 204.765 18.255C203.605 18.255 202.706 18.6513 202.068 19.444C201.449 20.2173 201.14 21.3483 201.14 22.837C201.14 24.345 201.449 25.4857 202.068 26.259C202.687 27.0323 203.576 27.419 204.736 27.419ZM221.446 30.232C219.996 30.232 218.72 29.9323 217.618 29.333C216.535 28.7337 215.694 27.8733 215.095 26.752C214.495 25.6307 214.196 24.3257 214.196 22.837C214.196 21.3483 214.495 20.053 215.095 18.951C215.694 17.8297 216.535 16.9693 217.618 16.37C218.72 15.7707 219.996 15.471 221.446 15.471C222.896 15.471 224.162 15.7707 225.245 16.37C226.347 16.9693 227.188 17.8297 227.768 18.951C228.367 20.053 228.667 21.3483 228.667 22.837C228.667 24.3257 228.367 25.6307 227.768 26.752C227.188 27.8733 226.347 28.7337 225.245 29.333C224.162 29.9323 222.896 30.232 221.446 30.232ZM221.417 27.419C222.596 27.419 223.495 27.0323 224.114 26.259C224.732 25.4857 225.042 24.345 225.042 22.837C225.042 21.3483 224.732 20.2173 224.114 19.444C223.495 18.6513 222.606 18.255 221.446 18.255C220.286 18.255 219.387 18.6513 218.749 19.444C218.13 20.2173 217.821 21.3483 217.821 22.837C217.821 24.345 218.13 25.4857 218.749 26.259C219.367 27.0323 220.257 27.419 221.417 27.419ZM241.374 30L235.284 23.533V30H231.659V9.555H235.284V22.025L240.997 15.848H245.405L239.025 22.634L245.869 30H241.374Z" fill="#FF4785"/>
</g>
<defs>
<clipPath id="clip0">
<rect width="246" height="40" fill="white"/>
</clipPath>
</defs>
</svg>
