<svg width="48" height="48" viewBox="0 0 48 48" fill="none" xmlns="http://www.w3.org/2000/svg">
  <title>Chromatic logo</title>
  <circle cx="24.666" cy="24" r="24" fill="#FC521F"/>
  <path fill-rule="evenodd" clip-rule="evenodd" d="M30.3052 35.0414L26.4916 32.8411L37.9648 26.2231C38.4044 25.969 38.8187 25.6783 39.2046 25.3534C40.6958 27.4768 40.8424 30.2735 39.5129 32.5754C38.3117 34.6532 36.0709 35.944 33.6677 35.944C32.4918 35.944 31.3299 35.6318 30.3052 35.0414ZM29.3864 36.6299C29.8265 36.8843 30.2853 37.0979 30.7603 37.2696C29.6654 39.6213 27.3154 41.1454 24.6535 41.1454C20.938 41.1454 17.9135 38.124 17.9135 34.4111V21.1743L23.7348 24.5333V32.8398C23.7348 33.1676 23.9102 33.4708 24.1939 33.6347L29.3864 36.6299ZM15.6578 35.9409C13.254 35.9409 11.0169 34.6513 9.81521 32.5743C8.91631 31.0166 8.6759 29.2022 9.14278 27.4638C9.60936 25.7254 10.7231 24.2731 12.2831 23.374L16.0956 21.1743L16.0962 34.4082C16.0962 34.9159 16.1398 35.4195 16.2283 35.9177C16.0384 35.9336 15.8477 35.9409 15.6578 35.9409ZM30.4946 19.5853L24.6755 22.9426L17.4756 18.7898C17.3339 18.7083 17.1754 18.6668 17.0157 18.6668C16.858 18.6668 16.6995 18.7083 16.5569 18.7898L11.3653 21.785C10.9255 22.0377 10.51 22.3279 10.1241 22.6542C8.63348 20.5311 8.48802 17.7347 9.81605 15.432C11.0178 13.3544 13.2563 12.0625 15.6609 12.0625C16.8354 12.0625 17.9979 12.3758 19.0234 12.9665L30.4946 19.5853ZM24.6537 6.85938C28.371 6.85938 31.3934 9.8807 31.3934 13.5951V17.9951L19.9237 11.3783C19.4836 11.1233 19.0245 10.9092 18.5481 10.7368C19.643 8.38425 21.9936 6.85938 24.6537 6.85938ZM39.5151 15.4341C41.3721 18.6504 40.2659 22.7774 37.0469 24.6336L25.5757 31.2518V24.5361L32.7748 20.3827C33.0593 20.2188 33.2347 19.9156 33.2347 19.5875V13.5971C33.2353 13.0911 33.1894 12.5869 33.1026 12.0905C33.291 12.0739 33.4809 12.0661 33.6714 12.0661C36.0754 12.0661 38.3145 13.3569 39.5151 15.4341Z" fill="white"/>
</svg>
