<svg xmlns="http://www.w3.org/2000/svg" fill="none" viewBox="0 0 62 48">
  <title>Discord logo</title>
  <g clip-path="url(#a)">
    <mask id="b" width="62" height="48" x="0" y="0" maskUnits="userSpaceOnUse" style="mask-type:luminance">
      <path fill="#fff" d="M62.75.5h-62v48h62V.5Z"/>
    </mask>
    <g mask="url(#b)">
      <path fill="#5865F2" d="M53.236 4.774A51.148 51.148 0 0 0 40.616.863a.192.192 0 0 0-.203.095 35.573 35.573 0 0 0-1.571 3.226 47.228 47.228 0 0 0-14.175 0A32.64 32.64 0 0 0 23.071.958a.2.2 0 0 0-.202-.095 51.008 51.008 0 0 0-12.62 3.911.18.18 0 0 0-.083.072C2.128 16.847-.074 28.553 1.006 40.114c.005.057.037.111.08.145 5.304 3.893 10.44 6.255 15.482 7.822a.2.2 0 0 0 .218-.072 36.71 36.71 0 0 0 3.167-5.148.196.196 0 0 0-.107-.273 33.857 33.857 0 0 1-4.837-2.304.199.199 0 0 1-.02-.33c.326-.243.65-.496.961-.752a.192.192 0 0 1 .2-.027c10.147 4.63 21.132 4.63 31.16 0a.191.191 0 0 1 .202.025c.31.255.636.511.963.755a.199.199 0 0 1-.017.329 31.782 31.782 0 0 1-4.839 2.301.198.198 0 0 0-.105.276 41.23 41.23 0 0 0 3.165 5.146.197.197 0 0 0 .217.074c5.066-1.567 10.203-3.93 15.506-7.822a.2.2 0 0 0 .081-.142c1.293-13.366-2.165-24.976-9.167-35.269a.157.157 0 0 0-.08-.074Zm-31.768 28.3c-3.055 0-5.572-2.802-5.572-6.244 0-3.443 2.469-6.246 5.572-6.246 3.128 0 5.621 2.828 5.572 6.246 0 3.442-2.468 6.245-5.572 6.245Zm20.602 0c-3.055 0-5.572-2.802-5.572-6.244 0-3.443 2.468-6.246 5.572-6.246 3.128 0 5.62 2.828 5.572 6.246 0 3.442-2.444 6.245-5.572 6.245Z"/>
    </g>
  </g>
  <defs><clipPath id="a"><path fill="#fff" d="M.75.5h62v48h-62z"/></clipPath></defs>
</svg>