<svg xmlns="http://www.w3.org/2000/svg" fill="none" viewBox="0 0 32 48">
  <title>Figma logo</title>
  <g clip-path="url(#a)">
    <path fill="#1ABCFE" d="M16 24a7.919 7.919 0 1 1 15.837 0A7.919 7.919 0 0 1 16 24Z"/>
    <path fill="#0ACF83" d="M.162 39.837a7.919 7.919 0 0 1 7.919-7.919h7.918v7.919a7.918 7.918 0 1 1-15.837 0Z"/>
    <path fill="#FF7262" d="M16 .244v15.837h7.919a7.918 7.918 0 1 0 0-15.837H16Z"/>
    <path fill="#F24E1E" d="M.162 8.163a7.918 7.918 0 0 0 7.919 7.918h7.918V.244H8.081A7.919 7.919 0 0 0 .162 8.163Z"/>
    <path fill="#A259FF" d="M.162 24a7.918 7.918 0 0 0 7.919 7.92h7.918V16.081H8.081a7.919 7.919 0 0 0-7.919 7.919Z"/>
  </g>
  <defs><clipPath id="a"><path fill="#fff" d="M0 0h32v48H0z"/></clipPath></defs>
</svg>