<svg xmlns="http://www.w3.org/2000/svg" fill="none" width="62" height="48" viewBox="0 0 62 48">
  <title>Github logo</title>
  <path fill="#161614" d="M30.82.5C17.251.5 6.25 11.517 6.25 25.108c0 10.872 7.04 20.097 16.802 23.35 1.228.228 1.679-.533 1.679-1.183 0-.587-.023-2.526-.034-4.582-6.835 1.489-8.277-2.903-8.277-2.903-1.118-2.845-2.728-3.601-2.728-3.601-2.23-1.527.168-1.496.168-1.496 2.467.174 3.766 2.536 3.766 2.536 2.191 3.762 5.748 2.674 7.15 2.046.22-1.59.857-2.676 1.56-3.29-5.457-.623-11.194-2.733-11.194-12.162 0-2.687.96-4.882 2.531-6.605-.255-.62-1.096-3.123.238-6.513 0 0 2.063-.661 6.759 2.523 1.96-.546 4.061-.819 6.15-.828 2.087.01 4.19.282 6.154.828 4.69-3.184 6.75-2.523 6.75-2.523 1.337 3.39.496 5.893.24 6.513 1.576 1.723 2.53 3.918 2.53 6.605 0 9.451-5.748 11.532-11.22 12.142.882.763 1.667 2.26 1.667 4.557 0 3.292-.028 5.942-.028 6.753 0 .654.442 1.422 1.687 1.18 9.757-3.257 16.788-12.478 16.788-23.347C55.388 11.518 44.388.5 30.82.5ZM15.451 35.555c-.054.122-.246.159-.421.075-.178-.08-.278-.247-.22-.37.052-.126.245-.161.422-.077.18.08.28.249.219.372Zm1.208 1.08c-.117.108-.346.058-.501-.114-.16-.172-.191-.401-.072-.511.12-.11.343-.058.504.113.16.174.192.402.07.512Zm.83 1.382c-.15.104-.397.006-.55-.213-.15-.219-.15-.481.004-.586.153-.105.395-.01.55.206.15.223.15.485-.004.593Zm1.402 1.6c-.135.149-.422.109-.632-.094-.215-.199-.274-.48-.14-.629.137-.15.426-.107.637.094.213.198.278.482.135.629Zm1.812.54c-.06.193-.336.28-.614.199-.278-.085-.46-.31-.404-.505.058-.194.336-.285.616-.198.277.084.46.308.402.504Zm2.062.23c.007.202-.229.37-.52.374-.295.007-.532-.157-.535-.357 0-.205.23-.372.524-.377.292-.005.531.158.531.36Zm2.026-.078c.035.198-.168.401-.458.455-.285.052-.549-.07-.585-.266-.036-.203.171-.407.456-.46.29-.05.55.07.587.27Z"/>
</svg>