<svg width="48" height="48" viewBox="0 0 48 48" fill="none" xmlns="http://www.w3.org/2000/svg">
  <title>Typography</title>
  <path fill-rule="evenodd" clip-rule="evenodd" d="M7.89639 37.9829L9.98859 31.9674H19.2633L21.2808 37.9829H28.4259L18.0889 9.99023H11.3926L0.939453 37.9829H7.89639ZM12.0725 10.9698L2.35092 37.0033H7.19995L9.29214 30.9878H19.968L21.9855 37.0033H27.0199L17.4064 10.9698H12.0725ZM14.2994 16.6489L10.4815 27.5409H18.7672L15.0725 16.6489H14.2994ZM14.6771 18.5327L17.4005 26.5613H11.8629L14.6771 18.5327ZM29.79 23.4589H34.1303C34.294 22.4953 34.6834 21.7644 35.3098 21.2887C36.0014 20.7634 36.9264 20.5079 38.0718 20.5079C38.5692 20.5079 39.036 20.5412 39.4724 20.6082C39.9451 20.6807 40.3675 20.8282 40.7359 21.0521C41.1219 21.2866 41.4308 21.615 41.6582 22.0296C41.8894 22.451 41.9988 22.99 41.9983 23.6241C42.0297 24.324 41.8107 24.8956 41.3365 25.29C40.9266 25.631 40.3878 25.8823 39.7238 26.0504C39.1007 26.2081 38.3919 26.3256 37.5965 26.4035C36.8341 26.4782 36.0592 26.5779 35.2716 26.7025C34.4923 26.8258 33.7191 26.9923 32.9517 27.202C32.2206 27.4018 31.5749 27.6995 31.012 28.095C30.4658 28.4788 30.0183 28.9943 29.6675 29.6474C29.3232 30.2886 29.1467 31.1244 29.1467 32.1586C29.1467 33.1004 29.3015 33.9013 29.6063 34.5645C29.9112 35.2277 30.3311 35.772 30.8687 36.2029C31.4145 36.6405 32.0532 36.9639 32.7887 37.1734C33.5408 37.3876 34.3551 37.4951 35.2324 37.4951C36.379 37.4951 37.501 37.3259 38.6 36.9872C39.6658 36.6587 40.5902 36.0854 41.3797 35.2624L42.1385 34.4713L42.2215 35.5643C42.245 35.8729 42.286 36.1752 42.3444 36.4713C42.3799 36.6509 42.4218 36.8282 42.4702 37.0033H46.7382C46.6234 36.6429 46.5373 36.2212 46.4775 35.7371C46.3754 34.9096 46.3244 34.0447 46.3244 33.1423V22.9651C46.3244 21.8765 46.0904 21.0247 45.6336 20.3968C45.1577 19.7429 44.5473 19.2334 43.7963 18.8647C43.0222 18.4847 42.1632 18.2285 41.2173 18.0967C40.2432 17.9611 39.2819 17.8933 38.3333 17.8933C37.295 17.8933 36.2628 17.9973 35.2362 18.2052C34.2306 18.4089 33.3298 18.7487 32.5316 19.2242C31.7485 19.6906 31.1052 20.3072 30.5978 21.0779C30.1753 21.7197 29.9048 22.5119 29.79 23.4589ZM35.2324 38.4747C36.4769 38.4747 37.6961 38.2908 38.8886 37.9233C39.8053 37.6408 40.6338 37.199 41.3716 36.5999L41.3834 36.6611C41.4496 36.996 41.5356 37.3244 41.6415 37.6462L41.7523 37.9829H48.3646L47.9035 37.2359C47.6975 36.9022 47.5415 36.3604 47.4498 35.6171C47.3526 34.8303 47.304 34.0054 47.304 33.1423V22.9651C47.304 21.6827 47.0149 20.6303 46.4257 19.8205C45.8554 19.0367 45.1209 18.4238 44.228 17.9854C43.3582 17.5583 42.399 17.2723 41.3524 17.1265C40.3339 16.9847 39.3275 16.9138 38.3333 16.9138C37.2296 16.9138 36.1323 17.0242 35.0418 17.2451C33.9303 17.4702 32.9257 17.8492 32.0303 18.3826C31.1196 18.925 30.3682 19.6453 29.7796 20.5392C29.1812 21.4482 28.8453 22.5775 28.7658 23.9198L28.735 24.4385H35.0058L35.0476 23.9946C35.1353 23.0611 35.4259 22.4305 35.9023 22.0688C36.4062 21.6861 37.1251 21.4875 38.0718 21.4875C38.5209 21.4875 38.9383 21.5173 39.3238 21.5764C39.6731 21.63 39.973 21.7348 40.2272 21.8892C40.4639 22.033 40.6532 22.2343 40.7994 22.5007C40.9418 22.7603 41.0192 23.1419 41.0192 23.6461C41.0381 24.0779 40.9334 24.3512 40.7101 24.5369C40.4226 24.7761 40.0149 24.9662 39.4834 25.1008C38.9109 25.2457 38.2499 25.3552 37.501 25.4286C36.7191 25.5052 35.925 25.6074 35.1185 25.735C34.3037 25.8639 33.4954 26.0379 32.6935 26.257C31.8555 26.486 31.1065 26.8314 30.4489 27.2935C29.7746 27.7672 29.2259 28.3993 28.8045 29.1839C28.3767 29.9804 28.1671 30.9732 28.1671 32.1586C28.1671 33.2345 28.3486 34.1739 28.7163 34.9737C29.0839 35.7734 29.598 36.4398 30.256 36.9672C30.9057 37.4881 31.6618 37.871 32.5204 38.1155C33.3623 38.3553 34.2666 38.4747 35.2324 38.4747ZM41.1813 27.5572L41.9988 26.8214V29.9264C41.9988 30.2522 41.9662 30.6744 41.9017 31.1971C41.8315 31.7659 41.643 32.3242 41.3391 32.8699C41.0223 33.4386 40.5391 33.9207 39.898 34.3159C39.2374 34.7231 38.3418 34.9184 37.2125 34.9184C36.7588 34.9184 36.3172 34.8777 35.8882 34.7963C35.4311 34.7095 35.0245 34.5551 34.6716 34.3317C34.2999 34.0965 34.005 33.7742 33.7912 33.3722C33.5764 32.9683 33.4723 32.4865 33.4723 31.9316C33.4723 31.3522 33.5758 30.8582 33.7912 30.4531C33.9991 30.0622 34.2767 29.7355 34.6213 29.4775C34.952 29.23 35.3361 29.0355 35.7715 28.8933C36.1774 28.7607 36.59 28.6546 37.0143 28.5741C37.447 28.4967 37.8799 28.4323 38.3128 28.3807C38.7243 28.3317 39.1169 28.2705 39.4907 28.1973C39.8561 28.1256 40.1965 28.0365 40.5117 27.9301C40.7872 27.8371 41.009 27.7123 41.1813 27.5572ZM39.6791 29.1586C40.0858 29.0788 40.4678 28.9788 40.825 28.8582C40.8914 28.8358 40.9561 28.8119 41.0192 28.7863V29.9264C41.0192 30.206 40.9895 30.5909 40.9295 31.0771C40.8752 31.5172 40.7274 31.9551 40.4833 32.3931C40.2522 32.8081 39.8885 33.171 39.384 33.482C38.8988 33.781 38.1754 33.9388 37.2125 33.9388C36.8194 33.9388 36.439 33.9038 36.071 33.8339C35.7311 33.7694 35.4403 33.6589 35.1955 33.504C34.9694 33.3609 34.7911 33.1661 34.6561 32.9123C34.5222 32.6604 34.4519 32.3352 34.4519 31.9316C34.4519 31.5021 34.5228 31.1638 34.6561 30.913C34.797 30.6482 34.9802 30.4326 35.2083 30.2618C35.4505 30.0805 35.7389 29.9345 36.0757 29.8245C36.4418 29.7049 36.8138 29.6092 37.1918 29.5374C37.6007 29.4644 38.0147 29.4028 38.4286 29.3534C38.864 29.3016 39.2808 29.2366 39.6791 29.1586Z" fill="#1EA7FD"/>
</svg>
