<svg xmlns="http://www.w3.org/2000/svg" fill="none" width="62" height="48" viewBox="0 0 62 48">
  <title>Youtube logo</title>
  <path fill="#ED1D24" d="M58.642 11.09c-.65-2.398-2.566-4.285-5-4.926C49.234 5 31.553 5 31.553 5S13.87 5 9.46 6.164c-2.433.64-4.349 2.528-5 4.925-1.18 4.345-1.18 13.409-1.18 13.409s0 9.064 1.18 13.409c.651 2.397 2.567 4.284 5 4.925 4.41 1.164 22.091 1.164 22.091 1.164s17.682 0 22.092-1.164c2.433-.64 4.349-2.528 4.999-4.925 1.182-4.345 1.182-13.409 1.182-13.409s0-9.064-1.182-13.409Z"/>
  <path fill="#fff" d="m25.768 32.727 14.778-8.23-14.778-8.23v16.46Z"/>
</svg>